<?xml version="1.0" standalone="no"?>
<svg xmlns:xlink="http://www.w3.org/1999/xlink" id="wave" style="transform:rotate(180deg); transition: 0.3s" viewBox="0 0 1440 100" version="1.1" xmlns="http://www.w3.org/2000/svg"><defs><linearGradient id="sw-gradient-0" x1="0" x2="0" y1="1" y2="0"><stop stop-color="rgba(255, 249, 234, 1)" offset="0%"/><stop stop-color="rgba(255, 249, 234, 1)" offset="100%"/></linearGradient></defs><path style="transform:translate(0, 0px); opacity:1" fill="url(#sw-gradient-0)" d="M0,60L26.7,56.7C53.3,53,107,47,160,51.7C213.3,57,267,73,320,73.3C373.3,73,427,57,480,43.3C533.3,30,587,20,640,16.7C693.3,13,747,17,800,26.7C853.3,37,907,53,960,56.7C1013.3,60,1067,50,1120,53.3C1173.3,57,1227,73,1280,76.7C1333.3,80,1387,70,1440,55C1493.3,40,1547,20,1600,20C1653.3,20,1707,40,1760,43.3C1813.3,47,1867,33,1920,36.7C1973.3,40,2027,60,2080,66.7C2133.3,73,2187,67,2240,53.3C2293.3,40,2347,20,2400,18.3C2453.3,17,2507,33,2560,40C2613.3,47,2667,43,2720,43.3C2773.3,43,2827,47,2880,43.3C2933.3,40,2987,30,3040,33.3C3093.3,37,3147,53,3200,51.7C3253.3,50,3307,30,3360,23.3C3413.3,17,3467,23,3520,36.7C3573.3,50,3627,70,3680,76.7C3733.3,83,3787,77,3813,73.3L3840,70L3840,100L3813.3,100C3786.7,100,3733,100,3680,100C3626.7,100,3573,100,3520,100C3466.7,100,3413,100,3360,100C3306.7,100,3253,100,3200,100C3146.7,100,3093,100,3040,100C2986.7,100,2933,100,2880,100C2826.7,100,2773,100,2720,100C2666.7,100,2613,100,2560,100C2506.7,100,2453,100,2400,100C2346.7,100,2293,100,2240,100C2186.7,100,2133,100,2080,100C2026.7,100,1973,100,1920,100C1866.7,100,1813,100,1760,100C1706.7,100,1653,100,1600,100C1546.7,100,1493,100,1440,100C1386.7,100,1333,100,1280,100C1226.7,100,1173,100,1120,100C1066.7,100,1013,100,960,100C906.7,100,853,100,800,100C746.7,100,693,100,640,100C586.7,100,533,100,480,100C426.7,100,373,100,320,100C266.7,100,213,100,160,100C106.7,100,53,100,27,100L0,100Z"/></svg>